<?xml version="1.0" standalone="yes"?>
<svg xmlns="http://www.w3.org/2000/svg" width="1366" height="768">
<path style="fill:#ffffff; stroke:none;" d="M0 0L0 768L1366 768L1366 0L0 0z"/>
<path style="fill:#118d43; stroke:none;" d="M1158 432C1158 420.289 1158.85 408.466 1156.12 397C1154.29 389.352 1151.4 382.216 1146.48 376.001C1143.04 371.648 1138.66 368.077 1134 365.09C1130.86 363.075 1127.44 361.315 1124 359.877C1108.41 353.365 1104.21 361.765 1099.32 375C1094.14 389.008 1090.89 412.371 1079 421.65C1070.6 428.209 1062.51 435.232 1054 441.625C1050.56 444.205 1046.91 448.117 1042.83 444.744C1013.33 420.328 1063.72 389.798 1076.65 371C1080.57 365.3 1090.62 353.858 1085.82 346.394C1083.53 342.825 1077.62 341.915 1074 340.218C1058.02 332.731 1039.34 329.516 1028.09 346C1013.76 367.01 999.802 400.14 1004.46 426C1008.22 446.811 1033.16 463.292 1054 458.606C1060.26 457.198 1066.05 451.948 1071 448.112C1081.99 439.601 1086.18 430.804 1092.24 419C1099.54 404.774 1112.13 391.123 1115 375C1129.65 387.139 1129.35 414.881 1128 432C1118.15 431.918 1106.73 428.231 1098.09 434.8C1086.56 443.575 1086.16 470.034 1101 475.852C1114.49 481.14 1136.15 476.07 1145.96 465.985C1150.66 461.153 1152.27 454.188 1156.7 449.51C1161.49 444.448 1170.41 441.835 1176 437C1176 445.019 1173.6 457.724 1177.46 464.956C1182.8 474.986 1199.69 472.082 1205.03 463.996C1218.13 444.17 1218.95 415.635 1229 394L1230 394C1230 406.795 1229.33 430.805 1238.53 440.671C1259.39 463.032 1284.92 432.536 1288 412L1267 427C1264.1 404.059 1263.98 382.07 1266 359C1266.67 351.315 1271.06 338.491 1264.72 332.303C1252.13 320.019 1240.77 336.261 1236.31 346C1222.69 375.752 1209.49 405.983 1199 437C1196.81 431.113 1199.41 424.943 1200.6 419C1203.06 406.703 1205.22 394.377 1207.25 382C1210.56 361.738 1208.9 342.134 1210.39 322C1211.94 301.012 1219.5 278.791 1223.39 258C1226.19 243.001 1237.3 211.272 1214 211.004C1211.61 210.976 1208.51 210.572 1206.28 211.603C1202.38 213.406 1201.79 220.324 1200.87 224C1197.82 236.231 1195.43 248.632 1193 261C1184.83 302.51 1183.13 344.195 1177.58 386C1175.01 405.313 1178.94 423.234 1158 432z"/>
<path style="fill:#f7cc82; stroke:none;" d="M268 347C260.033 343.666 254.085 339.217 245 340.105C241.115 340.485 237.861 342.747 234 343C223.49 354.92 210.137 339.158 198 340.094C189.054 340.784 182.369 347.938 173 346.814C168.043 346.219 155.681 336.355 152.028 341.449C149.406 345.105 151.878 351.886 151.985 356C152.343 369.688 153.975 383.347 154.91 397C156.164 415.284 156.567 433.801 158.715 452C159.734 460.639 158.954 468.836 165.468 475.699C175.045 485.789 191.445 483 204 483L297 483C309.052 483 325.189 485.702 334.815 476.671C344.703 467.393 341.855 452.125 343.285 440C347.256 406.346 350 370.893 350 337L343 339C352.414 310.057 359.27 279.486 360.015 249C360.304 237.147 359.958 219.807 345 216.394C329.551 212.87 318.855 229.769 312.427 241C294.723 271.934 273.245 311.352 268 347z"/>
<path style="fill:#89c157; stroke:none;" d="M201 252C182.534 253.625 184.982 267.275 183.694 280.715C182.8 290.05 177.43 293.655 184 303L185 303C204.467 287.005 223.128 308.181 227.331 328C228.688 334.401 227.505 340.606 227 347C235.279 346.067 233.604 340.462 232.21 334C229.944 323.501 225.043 310.796 227.39 300C228.841 293.329 236.903 287.835 236.718 281.059C236.543 274.624 219.213 274.393 226.604 264.133C231.075 257.927 257.506 252.746 264.999 253.734C268.283 254.167 270.98 256.876 271.873 260.004C273.527 265.794 266.07 268.788 267.662 273.971C269.631 280.38 282.698 285.706 287 292L288 292C293.6 281.483 295.548 266.26 288.2 256.015C285.369 252.068 280.732 250.327 277.843 246.621C271.693 238.733 270.658 232.024 259 231C257.628 215.769 247.854 220.527 237.576 219.579C231.003 218.973 224.93 216.26 219.649 222.34C217.576 224.727 217.017 228.083 214.582 230.185C205.848 237.725 201.008 239.155 201 252z"/>
<path style="fill:#d55037; stroke:none;" d="M345.1 243.801C341.731 244.906 340.5 248.877 336.957 249.817C330.129 251.629 324.444 247.821 318.188 253.394C314.901 256.323 310.397 267.413 318.972 266.534C322.553 266.167 323.93 262.001 327.104 260.757C334.469 257.871 340.947 262.642 347.786 255.786C351.157 252.408 353.405 241.077 345.1 243.801z"/>
<path style="fill:#89c157; stroke:none;" d="M351 246L352 247L351 246M330 249L331 250L330 249z"/>
<path style="fill:#f7cc82; stroke:none;" d="M263.667 253.333L264.333 253.667L263.667 253.333z"/>
<path style="fill:#ffffff; stroke:none;" d="M235 344C249.43 338.002 254.212 343.02 268 347C270.887 334.407 275.451 321.998 280.204 310C282.173 305.028 286.727 298.444 286.559 293C286.256 283.226 273.499 281.787 268.747 275.61C264.029 269.478 276.711 263.844 270.41 256.282C264.688 249.414 243.409 257.913 236 259.576C232.54 260.353 228.18 260.872 226.18 264.225C219.482 275.448 236.357 274.234 236.864 281.034C237.317 287.108 228.677 293.627 227.38 300C224.821 312.563 230.576 332.207 235 344z"/>
<path style="fill:#f7cc82; stroke:none;" d="M266 253L267 254L266 253M259 254L260 255L259 254M254 255L255 256L254 255z"/>
<path style="fill:#118d43; stroke:none;" d="M422 276C422 313.392 424.559 351.856 420.831 389C419.485 402.405 418.991 416.855 417.025 430C415.439 440.61 411.19 456.22 414.318 466.787C417.086 476.141 436.02 473.06 441.682 468.775C446.8 464.902 444.668 451.762 445.424 446C448.384 423.456 444.139 395.458 452.879 374C457.581 362.457 476.231 361.68 486 356C480.306 345.048 462.695 351.584 453 352C453 333.971 455 316.059 455 298C455 293.042 452.974 282.515 457.318 279.075C473.245 266.462 499.883 276.313 518 272C514.099 260.556 502.941 262 493 262C472 262 449.654 265.179 429 261.195C421.198 259.69 405.689 252.416 398.148 255.607C392.46 258.015 396.58 265.847 399.34 268.891C404.436 274.512 414.783 275.689 422 276M852 276C852 313.392 854.559 351.856 850.831 389C849.485 402.405 848.991 416.855 847.025 430C845.439 440.61 841.19 456.22 844.318 466.787C847.086 476.141 866.02 473.06 871.682 468.775C876.8 464.902 874.668 451.762 875.424 446C878.384 423.456 874.139 395.458 882.879 374C887.581 362.457 906.231 361.68 916 356C910.305 345.048 892.695 351.584 883 352C883 333.971 885 316.059 885 298C885 293.042 882.974 282.515 887.318 279.075C903.245 266.462 929.883 276.313 948 272C944.099 260.556 932.941 262 923 262C902 262 879.654 265.179 859 261.195C851.198 259.69 835.689 252.416 828.148 255.607C822.46 258.015 826.58 265.847 829.34 268.891C834.436 274.512 844.783 275.689 852 276z"/>
<path style="fill:#f7cc82; stroke:none;" d="M245 257L246 258L245 257M240 258L241 259L240 258M236 259L237 260L236 259M231 260L232 261L231 260M228 261L229 262L228 261M272 261L273 262L272 261z"/>
<path style="fill:#89c157; stroke:none;" d="M324 261L325 262L324 261z"/>
<path style="fill:#f7cc82; stroke:none;" d="M272 263L273 264L272 263M225 264L226 265L225 264M271 266L272 267L271 266M269 268L270 269L269 268M267 269L268 270L267 269M225 271L226 272L225 271z"/>
<path style="fill:#d55037; stroke:none;" d="M339.208 274.801C335.426 276.105 333.982 280.853 329.996 282.218C322.418 284.814 315.493 279.904 308.093 285.638C304.867 288.138 297.677 301.155 307.029 300.454C311.479 300.12 313.109 294.457 317.043 292.873C325.233 289.575 332.842 295.552 340.671 288.316C344.07 285.175 348.735 271.516 339.208 274.801z"/>
<path style="fill:#f7cc82; stroke:none;" d="M230 276L231 277L230 276M234 276L235 277L234 276M268 276L269 277L268 276z"/>
<path style="fill:#89c157; stroke:none;" d="M336 276L337 277L336 276z"/>
<path style="fill:#f7cc82; stroke:none;" d="M237 280L237 283L238 283L237 280M277 281L278 282L277 281M280 283L281 284L280 283M236 284L237 285L236 284M281 284L282 285L281 284M235 285L236 286L235 285M282 285L283 286L282 285M283 286L284 287L283 286z"/>
<path style="fill:#89c157; stroke:none;" d="M340 288L341 289L340 288z"/>
<path style="fill:#f7cc82; stroke:none;" d="M232 289L233 290L232 289z"/>
<path style="fill:#89c157; stroke:none;" d="M304 289L305 290L304 289z"/>
<path style="fill:#118d43; stroke:none;" d="M172 311L182 305C177.587 297.949 171.297 292.542 163 290.681C158.525 289.678 151.85 290.627 153.337 296.895C154.378 301.281 159.72 300.798 163 302.456C166.806 304.38 169.591 307.59 172 311z"/>
<path style="fill:#f7cc82; stroke:none;" d="M230 292L231 293L230 292z"/>
<path style="fill:#d55037; stroke:none;" d="M152 340C163.761 339.939 171.082 350.427 184 345.532C190.701 342.993 196.459 338.751 204 340.532C210.016 341.954 218.135 350.098 224.697 347.357C228.499 345.769 227.989 339.311 227.999 336C228.038 323.806 223.345 312.851 214.91 304.015C200.303 288.715 189.818 300.668 176 308.995C166.009 315.016 151.627 314.812 151.044 330C150.914 333.375 151.579 336.67 152 340z"/>
<path style="fill:#f7cc82; stroke:none;" d="M228 296L229 297L228 296M227 298L228 299L227 298z"/>
<path style="fill:#d55037; stroke:none;" d="M327.184 309.046C323.57 310.914 322.258 315.19 317.985 316.258C307.795 318.805 298.938 312.727 292.093 325.001C289.975 328.8 290.9 335.964 296.9 334.149C301.186 332.852 302.3 327.344 307.004 326.357C314.575 324.77 320.769 328.678 327.957 323.351C332.475 320.002 336.716 304.119 327.184 309.046z"/>
<path style="fill:#f7cc82; stroke:none;" d="M227.333 311.667L227.667 312.333L227.333 311.667M228 316L229 317L228 316M229 321L230 322L229 321z"/>
<path style="fill:#118d43; stroke:none;" d="M565 441C565.083 431.005 566.872 420.607 569.579 411C570.923 406.232 574.374 399.045 572.393 394.109C569.666 387.316 552.976 387.288 548.174 391.318C531.528 405.287 526.309 429.313 512 445C512 427.727 516.404 410.923 523.012 395C525.598 388.768 529.102 380.724 535.04 377.009C539.945 373.941 548.327 374.117 554 374C548.109 358.932 512.519 358.233 504.62 371C490.824 393.296 477.963 426.489 485.573 453C489.15 465.464 511.944 470.856 521.96 463.486C529.277 458.102 532.127 447.388 537 440C538.768 445.435 540.375 451.123 543.468 455.985C559.187 480.687 581.034 447.255 587 433L588 433C588 453.865 598.267 466.37 620 458C616.609 445.543 621.69 436.888 625.667 425C633.641 401.165 640.77 367.888 661 351C657.029 368.165 633.17 405.706 666 406L680 366L681 366C680.987 385.858 672.535 407.329 676.34 427C677.69 433.975 689.277 443.724 696.895 441.303C701.337 439.892 704.932 431.484 707.867 428C720.193 413.366 727.804 394.797 741 381C740.881 395.382 733.75 416.473 740.139 429.985C743.571 437.244 755.142 444.412 762.714 439.106C777.064 429.053 791.55 406.678 799 391L800 391C794.914 404.184 784.158 426.673 790.728 440.815C796.466 453.167 819.495 450.91 827.895 443.61C836.263 436.337 839.341 422.253 842 412L814 438C812.019 422.322 816.343 407.441 818.92 392C819.747 387.044 823.139 378.035 819.972 373.434C815.752 367.302 804.3 372.675 800.004 375.789C785.851 386.045 775.461 404.505 763 417C763.036 403.987 771.057 381.191 763.566 369.434C760.146 364.066 748.675 366.29 744 368.363C732.21 373.591 714.329 394.367 709 406L708 406C708 395.685 708.434 385.289 709.089 375C709.341 371.031 710.554 365.803 707.411 362.564C702.454 357.455 690.427 359 684 359C687.483 342.118 674.615 328.234 658.004 339.775C643.16 350.087 628.17 375.149 622 392C618.13 378.908 621.546 362.032 624.424 349C625.546 343.923 630.398 333.986 627.932 329.108C624.652 322.618 608.601 320.206 604.92 327.109C591.478 352.314 600.395 386.605 590.852 412.961C587.452 422.35 571.835 433.176 565 441M947 458C943.609 445.543 948.69 436.888 952.667 425C960.641 401.165 967.77 367.888 988 351C984.029 368.165 960.17 405.706 993 406C993.658 393.307 1003.48 377.037 1008.2 365C1010.38 359.462 1013.73 353.108 1012.28 347C1009.3 334.463 994.088 333.464 985.004 339.775C970.16 350.087 955.17 375.149 949 392C945.13 378.908 948.546 362.032 951.424 349C952.555 343.88 956.871 335.151 955.303 330.044C952.824 321.968 934.911 320.212 931.483 328.044C925.989 340.596 925.285 357.497 923.834 371C922.219 386.035 919.326 400.939 917.925 416C916.989 426.065 913.192 436.891 915.529 447C919.072 462.326 935.065 462.596 947 458z"/>
<path style="fill:#f7cc82; stroke:none;" d="M230.333 325.667L230.667 326.333L230.333 325.667z"/>
<path style="fill:#89c157; stroke:none;" d="M290 328L291 329L290 328z"/>
<path style="fill:#f7cc82; stroke:none;" d="M231 330L232 331L231 330M232.333 334.667L232.667 335.333L232.333 334.667M233 339L234 340L233 339z"/>
<path style="fill:#ffffff; stroke:none;" d="M1041 382C1051.52 374.59 1062.54 361.174 1067 349C1053.17 344.155 1040.26 370.431 1041 382M683 359L684 360L683 359M588.333 431.667L588.667 432.333L588.333 431.667M1128 444C1121.89 443.228 1115.16 441.368 1109 441.654C1095.02 442.302 1097.24 472.511 1114 466.887C1116.14 466.169 1118.18 465.065 1119.91 463.606C1122.33 461.556 1124.16 458.874 1125.48 456C1127.25 452.128 1127.91 448.215 1128 444z"/>
</svg>
